<svg width="363" height="364" viewBox="0 0 363 364" fill="none" xmlns="http://www.w3.org/2000/svg">
<path d="M24.4195 13.0586C24.4195 5.84659 30.2661 0 37.4781 0H324.243C331.455 0 337.301 5.84659 337.301 13.0586V232.605H24.4195V13.0586Z" fill="url(#paint0_linear_7_692)"/>
<path d="M24.4195 13.0586C24.4195 5.84659 30.2661 0 37.4781 0H324.243C331.455 0 337.301 5.84659 337.301 13.0586V232.605H24.4195V13.0586Z" fill="url(#paint1_linear_7_692)"/>
<path d="M37.274 15.711C37.274 13.908 38.7357 12.4465 40.5387 12.4465H321.182C322.985 12.4465 324.446 13.908 324.446 15.7111V216.895C324.446 218.698 322.985 220.159 321.182 220.159H40.5387C38.7357 220.159 37.274 218.698 37.274 216.895V15.711Z" fill="url(#paint2_linear_7_692)"/>
<path d="M24.4195 232.606H337.301L361.72 340.869C363.877 348.093 356.889 352.021 349.798 352.021H13.4889C2.21557 352.021 -1.01291 346.601 0.261086 340.89L24.4195 232.606Z" fill="url(#paint3_linear_7_692)"/>
<path d="M0.0105794 343.604L0 354.776C0.199013 359.4 3.99593 363.244 13.4887 363.244H349.798C355.954 363.244 362.033 360.284 362.118 354.776V343.604C361.996 349.08 355.935 352.022 349.798 352.022H13.4887C4.0308 352.022 0.235318 348.206 0.0105794 343.604Z" fill="url(#paint4_linear_7_692)"/>
<path d="M0.0105794 343.604L0 354.776C0.199013 359.4 3.99593 363.244 13.4887 363.244H349.798C355.954 363.244 362.033 360.284 362.118 354.776V343.604C361.996 349.08 355.935 352.022 349.798 352.022H13.4887C4.0308 352.022 0.235318 348.206 0.0105794 343.604Z" fill="url(#paint5_linear_7_692)"/>
<path d="M0.0105794 343.604L0 354.776C0.199013 359.4 3.99593 363.244 13.4887 363.244H349.798C355.954 363.244 362.033 360.284 362.118 354.776V343.604C361.996 349.08 355.935 352.022 349.798 352.022H13.4887C4.0308 352.022 0.235318 348.206 0.0105794 343.604Z" fill="url(#paint6_linear_7_692)"/>
<path d="M115.066 316.025C115.375 314.501 116.713 313.406 118.267 313.406H243.62C245.17 313.406 246.506 314.495 246.818 316.012L250.885 335.805C251.3 337.829 249.754 339.727 247.687 339.727H114.278C112.216 339.727 110.671 337.838 111.078 335.817L115.066 316.025Z" stroke="url(#paint7_linear_7_692)" stroke-width="0.707293"/>
<path d="M115.066 316.025C115.375 314.501 116.713 313.406 118.267 313.406H243.62C245.17 313.406 246.506 314.495 246.818 316.012L250.885 335.805C251.3 337.829 249.754 339.727 247.687 339.727H114.278C112.216 339.727 110.671 337.838 111.078 335.817L115.066 316.025Z" fill="url(#paint8_linear_7_692)"/>
<path d="M35.7965 250.12C36.3444 247.751 38.4542 246.073 40.8857 246.073H321.571C324.017 246.073 326.135 247.769 326.669 250.156L336.803 295.477C337.258 297.518 335.091 299.455 331.01 299.455H31.2744C25.9188 299.455 24.884 297.292 25.3571 295.246L35.7965 250.12Z" stroke="url(#paint9_linear_7_692)" stroke-width="0.707293"/>
<path d="M35.7965 250.12C36.3444 247.751 38.4542 246.073 40.8857 246.073H321.571C324.017 246.073 326.135 247.769 326.669 250.156L336.803 295.477C337.258 297.518 335.091 299.455 331.01 299.455H31.2744C25.9188 299.455 24.884 297.292 25.3571 295.246L35.7965 250.12Z" fill="url(#paint10_linear_7_692)"/>
<path d="M47.1467 252.187C47.2163 251.892 47.4793 251.684 47.782 251.684H60.7695C61.1757 251.684 61.4834 252.051 61.4123 252.45L59.9607 260.633C59.9054 260.945 59.6344 261.172 59.3179 261.172H45.8465C45.4252 261.172 45.1142 260.778 45.2112 260.368L47.1467 252.187Z" fill="#D7D3E6"/>
<path d="M314.575 252.187C314.506 251.892 314.242 251.684 313.939 251.684H300.953C300.546 251.684 300.238 252.051 300.31 252.45L301.761 260.633C301.817 260.945 302.087 261.172 302.405 261.172H315.876C316.296 261.172 316.607 260.778 316.511 260.368L314.575 252.187Z" fill="#D7D3E6"/>
<path d="M44.1943 267.039C44.2602 266.74 44.5254 266.528 44.8319 266.528H57.8234C58.2255 266.528 58.532 266.888 58.468 267.285L57.1483 275.466C57.0972 275.784 56.8242 276.016 56.5037 276.016H43.0283C42.6111 276.016 42.3009 275.629 42.3906 275.222L44.1943 267.039Z" fill="#D7D3E6"/>
<path d="M317.528 267.039C317.461 266.74 317.196 266.528 316.889 266.528H303.899C303.496 266.528 303.19 266.888 303.254 267.285L304.574 275.466C304.625 275.784 304.898 276.016 305.218 276.016H318.694C319.111 276.016 319.421 275.629 319.331 275.222L317.528 267.039Z" fill="#D7D3E6"/>
<path d="M40.9326 282.144C40.9965 281.842 41.2629 281.627 41.5713 281.627H55.0221C55.4226 281.627 55.7287 281.983 55.6672 282.379L54.3399 290.918C54.2904 291.237 54.0166 291.472 53.6947 291.472H39.7571C39.342 291.472 39.0323 291.089 39.1185 290.683L40.9326 282.144Z" fill="#D7D3E6"/>
<path d="M320.789 282.144C320.725 281.842 320.458 281.627 320.15 281.627H306.7C306.299 281.627 305.992 281.983 306.055 282.379L307.382 290.918C307.431 291.237 307.705 291.472 308.027 291.472H321.964C322.379 291.472 322.689 291.089 322.603 290.683L320.789 282.144Z" fill="#D7D3E6"/>
<path d="M70.2108 252.2C70.2756 251.898 70.5414 251.684 70.8491 251.684H83.8418C84.2426 251.684 84.5487 252.042 84.4871 252.437L83.2114 260.62C83.1618 260.937 82.8879 261.172 82.5662 261.172H69.0896C68.6737 261.172 68.3638 260.788 68.4513 260.381L70.2108 252.2Z" fill="#D7D3E6"/>
<path d="M291.51 252.2C291.445 251.898 291.18 251.684 290.871 251.684H277.878C277.477 251.684 277.172 252.042 277.233 252.437L278.509 260.62C278.558 260.937 278.833 261.172 279.154 261.172H292.63C293.047 261.172 293.356 260.788 293.269 260.381L291.51 252.2Z" fill="#D7D3E6"/>
<path d="M67.7166 267.051C67.7779 266.747 68.0457 266.528 68.3568 266.528H81.3537C81.7506 266.528 82.0555 266.879 82.0004 267.272L80.8831 275.223C80.8378 275.546 80.562 275.786 80.2364 275.786H66.7575C66.3451 275.786 66.036 275.409 66.1173 275.004L67.7166 267.051Z" fill="#D7D3E6"/>
<path d="M294.004 267.051C293.943 266.747 293.675 266.528 293.365 266.528H280.367C279.97 266.528 279.665 266.879 279.721 267.272L280.838 275.223C280.883 275.546 281.159 275.786 281.484 275.786H294.963C295.376 275.786 295.685 275.409 295.604 275.004L294.004 267.051Z" fill="#D7D3E6"/>
<path d="M64.9269 282.174C64.9783 281.858 65.2513 281.627 65.5715 281.627H79.0331C79.4205 281.627 79.7227 281.963 79.6823 282.348L78.7989 290.785C78.7641 291.117 78.4838 291.369 78.1495 291.369H64.202C63.7997 291.369 63.4931 291.01 63.5576 290.611L64.9269 282.174Z" fill="#D7D3E6"/>
<path d="M296.794 282.174C296.743 281.858 296.47 281.627 296.15 281.627H282.688C282.3 281.627 281.998 281.963 282.039 282.348L282.922 290.785C282.957 291.117 283.238 291.369 283.572 291.369H297.519C297.921 291.369 298.228 291.01 298.164 290.611L296.794 282.174Z" fill="#D7D3E6"/>
<path d="M93.0452 252.239C93.0934 251.92 93.3679 251.684 93.6907 251.684H106.696C107.08 251.684 107.381 252.014 107.346 252.397L106.593 260.578C106.563 260.915 106.281 261.172 105.942 261.172H92.4536C92.0542 261.172 91.7483 260.816 91.8082 260.421L93.0452 252.239Z" fill="#D7D3E6"/>
<path d="M268.676 252.239C268.628 251.92 268.353 251.684 268.03 251.684H255.025C254.641 251.684 254.339 252.014 254.374 252.397L255.128 260.578C255.159 260.915 255.44 261.172 255.778 261.172H269.268C269.666 261.172 269.973 260.816 269.913 260.421L268.676 252.239Z" fill="#D7D3E6"/>
<path d="M115.867 252.273C115.899 251.939 116.182 251.684 116.517 251.684H129.529C129.9 251.684 130.196 251.992 130.182 252.362L129.868 260.493C129.855 260.843 129.567 261.12 129.217 261.12H115.721C115.335 261.12 115.034 260.788 115.07 260.404L115.867 252.273Z" fill="#D7D3E6"/>
<path d="M245.855 252.273C245.822 251.939 245.541 251.684 245.204 251.684H232.193C231.822 251.684 231.525 251.992 231.54 252.362L231.853 260.493C231.866 260.843 232.155 261.12 232.506 261.12H246.001C246.387 261.12 246.689 260.788 246.651 260.404L245.855 252.273Z" fill="#D7D3E6"/>
<path d="M139.039 252.291C139.064 251.949 139.349 251.684 139.691 251.684H152.705C153.068 251.684 153.362 251.98 153.358 252.343L153.27 260.475C153.267 260.833 152.975 261.12 152.618 261.12H139.12C138.741 261.12 138.442 260.8 138.469 260.421L139.039 252.291Z" fill="#D7D3E6"/>
<path d="M222.681 252.291C222.656 251.949 222.372 251.684 222.029 251.684H209.015C208.652 251.684 208.358 251.98 208.362 252.343L208.45 260.475C208.454 260.833 208.745 261.12 209.103 261.12H222.6C222.979 261.12 223.278 260.8 223.252 260.421L222.681 252.291Z" fill="#D7D3E6"/>
<path d="M162.242 252.337C162.242 251.976 162.535 251.684 162.895 251.684H175.873C176.233 251.684 176.526 251.976 176.526 252.337V260.467C176.526 260.829 176.233 261.12 175.873 261.12H162.895C162.535 261.12 162.242 260.829 162.242 260.467V252.337Z" fill="#D7D3E6"/>
<path d="M162.242 267.104C162.242 266.744 162.535 266.451 162.895 266.451H175.873C176.233 266.451 176.526 266.744 176.526 267.104V275.236C176.526 275.596 176.233 275.889 175.873 275.889H162.895C162.535 275.889 162.242 275.596 162.242 275.236V267.104Z" fill="#D7D3E6"/>
<path d="M185.299 252.337C185.299 251.976 185.592 251.684 185.952 251.684H198.929C199.289 251.684 199.582 251.976 199.582 252.337V260.467C199.582 260.829 199.289 261.12 198.929 261.12H185.952C185.592 261.12 185.299 260.829 185.299 260.467V252.337Z" fill="#D7D3E6"/>
<path d="M185.299 267.104C185.299 266.744 185.592 266.451 185.952 266.451H198.929C199.289 266.451 199.582 266.744 199.582 267.104V275.236C199.582 275.596 199.289 275.889 198.929 275.889H185.952C185.592 275.889 185.299 275.596 185.299 275.236V267.104Z" fill="#D7D3E6"/>
<path d="M114.741 267.12C114.773 266.785 115.053 266.528 115.392 266.528H128.404C128.773 266.528 129.069 266.833 129.057 267.201L128.799 275.18C128.787 275.531 128.498 275.811 128.146 275.811H114.651C114.266 275.811 113.966 275.481 114.001 275.098L114.741 267.12Z" fill="#D7D3E6"/>
<path d="M246.98 267.12C246.949 266.785 246.667 266.528 246.33 266.528H233.316C232.948 266.528 232.652 266.833 232.664 267.201L232.921 275.18C232.933 275.531 233.222 275.811 233.574 275.811H247.069C247.454 275.811 247.756 275.481 247.719 275.098L246.98 267.12Z" fill="#D7D3E6"/>
<path d="M91.2571 267.096C91.2998 266.77 91.5767 266.528 91.9044 266.528H104.913C105.292 266.528 105.592 266.849 105.565 267.226L105.001 275.179C104.976 275.521 104.691 275.786 104.349 275.786H90.858C90.4636 275.786 90.1592 275.439 90.2107 275.048L91.2571 267.096Z" fill="#D7D3E6"/>
<path d="M270.465 267.096C270.422 266.77 270.145 266.528 269.817 266.528H256.808C256.43 266.528 256.131 266.849 256.157 267.226L256.721 275.179C256.746 275.521 257.03 275.786 257.373 275.786H270.865C271.259 275.786 271.563 275.439 271.511 275.048L270.465 267.096Z" fill="#D7D3E6"/>
<path d="M138.376 267.141C138.397 266.797 138.683 266.528 139.028 266.528H152.043C152.404 266.528 152.696 266.82 152.696 267.181V275.158C152.696 275.52 152.404 275.811 152.043 275.811H138.546C138.17 275.811 137.872 275.495 137.894 275.119L138.376 267.141Z" fill="#D7D3E6"/>
<path d="M223.343 267.141C223.322 266.797 223.037 266.528 222.691 266.528H209.676C209.316 266.528 209.023 266.82 209.023 267.181V275.158C209.023 275.52 209.316 275.811 209.676 275.811H223.173C223.549 275.811 223.848 275.495 223.826 275.119L223.343 267.141Z" fill="#D7D3E6"/>
<path d="M88.9197 282.198C88.9609 281.871 89.2385 281.627 89.5676 281.627H103.034C103.413 281.627 103.712 281.947 103.686 282.324L103.111 290.76C103.088 291.104 102.803 291.369 102.46 291.369H88.5068C88.1139 291.369 87.8099 291.025 87.859 290.635L88.9197 282.198Z" fill="#D7D3E6"/>
<path d="M272.801 282.198C272.759 281.871 272.483 281.627 272.154 281.627H258.686C258.308 281.627 258.008 281.947 258.035 282.324L258.609 290.76C258.633 291.104 258.917 291.369 259.261 291.369H273.214C273.607 291.369 273.911 291.025 273.862 290.635L272.801 282.198Z" fill="#D7D3E6"/>
<path d="M113.273 282.225C113.301 281.887 113.584 281.627 113.924 281.627H127.395C127.762 281.627 128.057 281.93 128.048 282.297L127.826 290.734C127.817 291.088 127.527 291.369 127.173 291.369H113.216C112.835 291.369 112.534 291.042 112.566 290.662L113.273 282.225Z" fill="#D7D3E6"/>
<path d="M248.447 282.225C248.419 281.887 248.136 281.627 247.796 281.627H234.325C233.958 281.627 233.663 281.93 233.672 282.297L233.894 290.734C233.903 291.088 234.193 291.369 234.547 291.369H248.504C248.886 291.369 249.187 291.042 249.155 290.662L248.447 282.225Z" fill="#D7D3E6"/>
<path d="M138.315 282.148C138.33 281.799 138.618 281.525 138.966 281.525H222.597C222.947 281.525 223.236 281.802 223.25 282.152L223.604 290.691C223.62 291.061 223.324 291.37 222.951 291.37H138.568C138.196 291.37 137.899 291.059 137.916 290.687L138.315 282.148Z" fill="#D7D3E6"/>
<defs>
<linearGradient id="paint0_linear_7_692" x1="303.43" y1="5.71313" x2="176.109" y2="223.22" gradientUnits="userSpaceOnUse">
<stop offset="0.411199" stop-color="#B95ACC"/>
<stop offset="1" stop-color="#832396"/>
</linearGradient>
<linearGradient id="paint1_linear_7_692" x1="180.861" y1="227.708" x2="180.861" y2="232.605" gradientUnits="userSpaceOnUse">
<stop stop-color="#534370" stop-opacity="0"/>
<stop offset="1" stop-color="#534370"/>
</linearGradient>
<linearGradient id="paint2_linear_7_692" x1="296.085" y1="31.4222" x2="89.5959" y2="241.176" gradientUnits="userSpaceOnUse">
<stop offset="0.373087" stop-color="#59E8FF"/>
<stop offset="0.933488" stop-color="#2DB3FF"/>
</linearGradient>
<linearGradient id="paint3_linear_7_692" x1="181.058" y1="232.606" x2="181.058" y2="352.021" gradientUnits="userSpaceOnUse">
<stop stop-color="#C9C6DA"/>
<stop offset="1" stop-color="#DAD5E4"/>
</linearGradient>
<linearGradient id="paint4_linear_7_692" x1="181.059" y1="353.399" x2="181.059" y2="363.244" gradientUnits="userSpaceOnUse">
<stop stop-color="#8C8396"/>
<stop offset="1" stop-color="#998AA9"/>
</linearGradient>
<linearGradient id="paint5_linear_7_692" x1="365.458" y1="356.664" x2="347.095" y2="356.664" gradientUnits="userSpaceOnUse">
<stop stop-color="#B0A8B8"/>
<stop offset="1" stop-color="#B0A8B8" stop-opacity="0"/>
</linearGradient>
<linearGradient id="paint6_linear_7_692" x1="3.8989" y1="353.424" x2="16.5494" y2="353.424" gradientUnits="userSpaceOnUse">
<stop stop-color="#81778C"/>
<stop offset="1" stop-color="#81778C" stop-opacity="0"/>
</linearGradient>
<linearGradient id="paint7_linear_7_692" x1="180.982" y1="313.406" x2="180.982" y2="339.727" gradientUnits="userSpaceOnUse">
<stop stop-color="#D8D4E5"/>
<stop offset="1" stop-color="#D8D4E5" stop-opacity="0"/>
</linearGradient>
<linearGradient id="paint8_linear_7_692" x1="180.982" y1="313.406" x2="180.982" y2="339.727" gradientUnits="userSpaceOnUse">
<stop stop-color="#A9A7B8"/>
<stop offset="1" stop-color="#838191"/>
</linearGradient>
<linearGradient id="paint9_linear_7_692" x1="181.059" y1="246.073" x2="181.059" y2="299.455" gradientUnits="userSpaceOnUse">
<stop stop-color="#C9C7DA"/>
<stop offset="1" stop-color="#C9C7DA" stop-opacity="0"/>
</linearGradient>
<linearGradient id="paint10_linear_7_692" x1="181.059" y1="246.073" x2="181.059" y2="299.455" gradientUnits="userSpaceOnUse">
<stop stop-color="#A9A8BD"/>
<stop offset="1" stop-color="#8A8999"/>
</linearGradient>
</defs>
</svg>
